<svg xmlns="http://www.w3.org/2000/svg" width="584" height="24" viewBox="0 0 584 24" fill="none">
<g clip-path="url(#clip0_5035_982)">
<path d="M91.5947 5.88965C91.7652 5.91014 91.9253 5.9761 92.0889 6.02637C92.6923 6.22392 93.2668 6.53007 93.7295 6.96875C94.1543 7.38004 94.513 7.86063 94.7871 8.38477C95.4116 9.56178 95.5909 10.953 95.3535 12.2588C95.0813 13.7098 94.4266 15.0653 93.6035 16.2812C92.3809 18.0587 90.7858 19.5653 89.0049 20.7744H87.1396C86.9278 20.4167 86.7115 20.0618 86.5 19.7041C87.2906 19.2715 88.0604 18.797 88.7744 18.2461C89.1591 18.7383 89.5301 19.2425 89.9268 19.7246C90.1707 19.5239 90.4198 19.3292 90.6533 19.1162C90.2852 18.6086 89.8874 18.1233 89.4648 17.6602C90.0367 17.1788 90.5503 16.6318 91.0371 16.0654C91.4898 16.4934 91.9092 16.9567 92.3398 17.4062C92.6206 17.1677 92.8251 16.8503 93.0459 16.5576C92.6183 16.0968 92.1449 15.6803 91.6934 15.2441C91.7765 15.1166 91.8804 15.0037 91.9678 14.8789C92.257 14.495 92.4878 14.0722 92.7217 13.6543C92.8443 13.7042 92.9362 13.8051 93.043 13.8809C93.4195 14.1627 93.7761 14.4697 94.1406 14.7666C94.3041 14.4214 94.5016 14.0845 94.6045 13.7158C94.161 13.333 93.6819 12.9905 93.1904 12.6719C93.3717 12.2265 93.5336 11.7691 93.6152 11.2939C94.1266 11.5317 94.5891 11.8609 95.0557 12.1748C95.1445 11.7357 95.1773 11.2859 95.1719 10.8379C94.7208 10.5689 94.2619 10.3103 93.7803 10.0996C93.7853 9.80808 93.7622 9.51791 93.7363 9.22754C94.1805 9.40691 94.6156 9.60835 95.042 9.82715C94.9933 9.40614 94.8345 9.00636 94.6621 8.62207C94.6188 8.54551 94.5916 8.43881 94.4961 8.41406C94.1361 8.28918 93.7753 8.16665 93.4111 8.05762C93.3145 7.82797 93.2031 7.60542 93.0732 7.39355C93.418 7.46544 93.7621 7.556 94.0879 7.69238C93.7318 7.21535 93.2747 6.81214 92.7598 6.51367C92.5958 6.41391 92.3827 6.48086 92.2207 6.38574C92.0352 6.19301 91.825 6.02641 91.5947 5.88965ZM90.209 20.0996C90.3482 20.3262 90.5186 20.5355 90.6357 20.7744H89.3057C89.3717 20.7188 89.439 20.6645 89.5127 20.6182C89.7574 20.4631 89.9697 20.2628 90.209 20.0996ZM96.0537 8.94336C96.2042 8.96127 96.2874 9.11392 96.3896 9.21094C97.1358 10.0282 97.626 11.0644 97.8252 12.1504C98.0533 13.329 97.9647 14.5536 97.6631 15.7109C97.1882 17.6012 96.1601 19.3152 94.8857 20.7744H92.5947C92.7026 20.6468 92.8356 20.5435 92.9531 20.4248C93.221 20.1619 93.4697 19.8808 93.7148 19.5967C93.7952 19.5128 93.8551 19.3996 93.959 19.3428C94.2455 19.6942 94.5147 20.061 94.7861 20.4248C95.0582 20.1337 95.2897 19.8084 95.5332 19.4941C95.2745 19.121 94.9997 18.7578 94.7031 18.4141C95.1485 17.8098 95.5545 17.1767 95.9102 16.5156C96.1907 16.8264 96.436 17.1676 96.6846 17.5039C96.9069 17.1386 97.0574 16.7321 97.1885 16.3262C96.9638 15.9844 96.7045 15.6679 96.4424 15.3555C96.6433 14.8171 96.7924 14.2591 96.8848 13.6914C97.1546 13.9114 97.3675 14.1895 97.6045 14.4424C97.6838 13.869 97.7047 13.2862 97.6533 12.709C97.4534 12.5103 97.2605 12.3022 97.0293 12.1387C97.0049 11.7483 96.9496 11.3619 96.8975 10.9746C97.0465 11.0847 97.1916 11.2001 97.3438 11.3066C97.0986 10.5246 96.6808 9.80618 96.1729 9.16602C96.1241 9.09719 96.0487 9.03539 96.0537 8.94336ZM102.265 18.8779C102.258 19.5101 102.277 20.1431 102.255 20.7744H98.4775C98.6802 20.1805 98.8715 19.5804 98.9883 18.9629C99.2327 17.7159 99.2808 16.4293 99.127 15.168C98.8833 13.1923 98.1047 11.2921 96.9189 9.69531C95.8185 8.2009 94.3614 6.96797 92.6953 6.14746C90.1209 4.87533 87.0741 4.59666 84.3105 5.37695C84.3067 4.51595 84.3111 3.65495 84.3096 2.79395H102.265C102.265 8.15508 102.264 13.5168 102.265 18.8779ZM85.9287 19.9717C86.0775 20.2384 86.2347 20.5009 86.373 20.7734H84.3066C84.3074 20.713 84.308 20.6534 84.3096 20.5938C84.862 20.4221 85.4022 20.2121 85.9287 19.9717ZM98.9912 15.1475C99.1076 16.1269 98.9124 17.1097 98.6738 18.0566C98.4078 18.9938 98.0734 19.9186 97.6025 20.7734H96.7207C96.7625 20.6406 96.8572 20.5344 96.9268 20.415C97.2125 19.9677 97.4536 19.4942 97.7061 19.0283C97.7867 19.1585 97.8558 19.2952 97.9199 19.4346C98.1 19.0746 98.2117 18.6841 98.3408 18.3037C98.432 18.0837 98.1572 17.8911 98.25 17.6738C98.4669 17.1036 98.6033 16.5068 98.71 15.9072C98.7528 15.9181 98.7842 15.957 98.8193 15.9844C98.8499 15.7745 98.8692 15.5632 98.8936 15.3525C98.9129 15.2896 98.8837 15.0942 98.9912 15.1475ZM103.097 19.3945C103.393 19.1368 103.888 19.1468 104.162 19.4336C104.313 19.5728 104.378 19.7768 104.4 19.9756V19.9893C104.383 20.2575 104.25 20.5284 104.007 20.6592C103.69 20.8475 103.247 20.7754 103.009 20.4932C102.737 20.183 102.777 19.657 103.097 19.3945ZM94.7129 7.875C94.9212 7.96962 95.1931 7.98384 95.3242 8.19629C95.9931 8.97194 96.4742 9.91239 96.6973 10.9131C96.9473 11.9867 96.8994 13.115 96.6357 14.1816C96.2004 15.9879 95.1875 17.5936 94.0176 19.0137C93.4887 19.618 92.9352 20.2041 92.332 20.7354C92.1952 20.7315 92.0578 20.7434 91.9229 20.7275C91.6 20.3138 91.293 19.8865 90.9512 19.4883C91.5666 18.9664 92.1257 18.381 92.6445 17.7637C92.9891 18.1488 93.3244 18.5426 93.6523 18.9424C93.795 18.8341 93.8944 18.6782 94.0186 18.5498C94.1407 18.3886 94.2842 18.2392 94.3828 18.0625C94.3768 17.9664 94.2824 17.9084 94.2295 17.8369C93.9481 17.5076 93.6599 17.1842 93.3584 16.873C93.6533 16.4977 93.9062 16.0912 94.1621 15.6885C94.2734 15.5049 94.3838 15.32 94.4766 15.126C94.6314 15.2026 94.7393 15.3461 94.8691 15.457C95.1046 15.6886 95.3366 15.9246 95.5654 16.1631C95.7799 15.8171 95.918 15.4308 96.0645 15.0527C95.7455 14.7094 95.4099 14.3798 95.0449 14.0859C94.9916 14.0596 95.0059 14.0091 95.0244 13.9658C95.2139 13.4945 95.3783 13.0079 95.4561 12.5049C95.5616 12.5273 95.6359 12.6133 95.7236 12.6709C95.9946 12.8677 96.2423 13.094 96.4912 13.3174C96.5669 12.8157 96.601 12.3055 96.5654 11.7988C96.2654 11.551 95.9564 11.3128 95.6328 11.0967C95.6054 10.7685 95.61 10.4381 95.5566 10.1123C95.8334 10.2634 96.095 10.4428 96.3721 10.5928C96.2348 10.0667 96.0147 9.56535 95.7461 9.09375C95.7016 9.02183 95.6691 8.93945 95.6064 8.88184C95.4651 8.79533 95.3056 8.74361 95.1592 8.66797C95.112 8.6498 95.098 8.59569 95.0771 8.55664C94.972 8.32095 94.8335 8.1026 94.7129 7.875ZM97.9121 11.7607C98.0544 11.8315 98.0985 11.9934 98.1592 12.1279C98.3904 12.6672 98.581 13.23 98.6553 13.8145C98.728 14.4451 98.6595 15.082 98.5752 15.708C98.4213 16.7299 98.1155 17.7279 97.6855 18.667C97.3658 19.3892 96.9614 20.0694 96.5322 20.7305C96.463 20.7328 96.3944 20.7342 96.3271 20.7354C96.1641 20.4479 95.971 20.1773 95.8145 19.8867C96.2409 19.2673 96.6533 18.6345 96.9912 17.9609C97.0008 17.9625 97.0196 17.9647 97.0293 17.9658C97.1689 18.1626 97.2854 18.3756 97.4072 18.584C97.4894 18.4738 97.5261 18.3377 97.5859 18.2148C97.7062 17.9288 97.8199 17.638 97.8984 17.3369C97.7744 17.1313 97.6566 16.922 97.5391 16.7129C97.718 16.1438 97.9021 15.568 97.9922 14.9746C97.9926 14.903 98.0536 14.9678 98.0693 14.9932C98.1555 15.104 98.2407 15.2162 98.335 15.3213C98.4443 14.7512 98.4881 14.1661 98.458 13.5859C98.364 13.4324 98.25 13.2915 98.1367 13.1523C98.0882 13.1002 98.0962 13.0239 98.0869 12.959C98.0541 12.5561 97.996 12.1559 97.9121 11.7607ZM99.041 17.4229C98.9471 18.5499 98.7418 19.68 98.3223 20.7344C98.1525 20.7359 97.9825 20.7357 97.8135 20.7354C97.9144 20.5119 98.0255 20.2929 98.1279 20.0703C98.1287 20.0347 98.1858 19.9725 98.1982 20.04C98.2207 20.0594 98.2174 20.1564 98.2607 20.1348C98.5476 19.2494 98.7796 18.346 98.9775 17.4375L99.041 17.4229ZM104.186 19.8496C104.112 19.5235 103.73 19.3085 103.415 19.4316C103.074 19.5411 102.896 19.9888 103.104 20.29C103.276 20.5969 103.731 20.6686 103.993 20.4365C103.925 20.4292 103.86 20.4228 103.795 20.417C103.722 20.2937 103.642 20.1747 103.567 20.0537C103.546 20.0529 103.504 20.051 103.483 20.0498C103.484 20.1747 103.484 20.3005 103.483 20.4258C103.418 20.4246 103.355 20.4238 103.293 20.4238C103.295 20.1307 103.296 19.837 103.293 19.5439C103.479 19.5451 103.67 19.525 103.854 19.5605C103.992 19.5956 104.034 19.762 103.997 19.8848C103.976 19.9857 103.864 20.0173 103.789 20.0664C103.888 20.1572 103.918 20.3309 104.043 20.3828C104.182 20.2459 104.227 20.0363 104.186 19.8496ZM88.541 5.12988C89.2355 5.20142 89.936 5.30407 90.5938 5.54883C91.1241 5.73868 91.6106 6.04152 92.0254 6.42188C92.8482 7.1287 93.4057 8.13678 93.5615 9.21094C93.7393 10.3901 93.4484 11.5849 93.0068 12.6748C92.5312 13.8196 91.8299 14.8573 91.0381 15.8057C89.6473 17.503 87.8905 18.9119 85.8916 19.8271C85.3782 20.0641 84.8507 20.2701 84.3125 20.4434C84.3044 19.6032 84.3123 18.7624 84.3076 17.9219C84.4727 17.8596 84.6301 17.7776 84.7939 17.7119C85.0874 18.341 85.4024 18.9616 85.7539 19.5605C85.9321 19.496 86.0951 19.3992 86.2598 19.3057C85.952 18.7272 85.6379 18.1506 85.3135 17.5811C85.2897 17.5373 85.2245 17.4554 85.3018 17.4307C85.9649 17.0838 86.5881 16.6606 87.165 16.1846C87.6074 16.7452 88.0479 17.3083 88.4863 17.8721C88.7318 17.7182 88.9416 17.515 89.1611 17.3271C88.7803 16.838 88.3678 16.3733 87.9648 15.9023C87.9107 15.8285 87.8165 15.7739 87.7871 15.6885C87.9838 15.498 88.1987 15.3254 88.3838 15.1221C88.6301 14.846 88.8907 14.5807 89.1104 14.2822C89.673 14.7358 90.2112 15.2241 90.7158 15.7422C90.942 15.4897 91.1707 15.2321 91.3408 14.9375C90.9121 14.5613 90.4743 14.1954 90.0273 13.8408C89.9098 13.7461 89.7796 13.6656 89.6807 13.5508C90.0174 13.1421 90.284 12.6779 90.5137 12.2012C90.9703 12.437 91.3981 12.7251 91.8311 13.002C92.0081 13.1129 92.1703 13.2481 92.3555 13.3467C92.5186 13.0451 92.682 12.7404 92.791 12.4141C92.2052 12.0494 91.6015 11.7129 90.9844 11.4043C90.948 11.3861 90.8812 11.3578 90.9141 11.3057C91.0427 10.9412 91.1608 10.5721 91.2412 10.1934C91.7864 10.3643 92.3059 10.6078 92.8213 10.8525C92.9493 10.9086 93.0667 10.9904 93.2031 11.0283C93.2754 10.6567 93.3277 10.2791 93.3242 9.89941C92.6971 9.61216 92.0418 9.39101 91.3799 9.20117C91.3849 8.96422 91.3603 8.72778 91.3545 8.49121C91.9507 8.60489 92.5295 8.79303 93.1025 8.99023C93.1408 8.99153 93.2147 9.04715 93.2354 8.99512C93.1603 8.62591 93.0376 8.26793 92.8799 7.92578C92.317 7.78158 91.7442 7.67478 91.1689 7.59668C91.1113 7.40335 90.9998 7.22631 90.958 7.03027C91.3539 7.0844 91.7543 7.11469 92.1475 7.19238C92.2457 7.21287 92.346 7.22975 92.4473 7.23633C92.235 6.92893 91.972 6.65762 91.6777 6.42871C91.6221 6.38502 91.5608 6.33754 91.4873 6.3418C91.1452 6.33136 90.8026 6.32039 90.4609 6.32812C90.3515 6.23301 90.261 6.11799 90.1504 6.02441C90.119 5.98825 90.059 5.96413 90.0625 5.91016C90.3049 5.8947 90.5488 5.89858 90.792 5.89355C90.6989 5.79391 90.5561 5.76664 90.4375 5.70801C90.0234 5.53981 89.5888 5.41277 89.1445 5.36328C88.9489 5.2694 88.7362 5.21994 88.541 5.12988ZM103.481 19.8643C103.568 19.8623 103.657 19.866 103.746 19.8564C103.813 19.8692 103.807 19.7871 103.815 19.7461C103.706 19.7299 103.595 19.7225 103.486 19.7217C103.485 19.7571 103.483 19.8282 103.481 19.8643ZM85.7275 5.24023C86.538 5.06123 87.39 5.04993 88.2051 5.21387C89.3244 5.44089 90.3547 6.17441 90.8477 7.2168C91.1109 7.73873 91.1996 8.32651 91.2197 8.90527C91.2197 10.2629 90.7306 11.5763 90.042 12.7305C89.3855 13.8107 88.5493 14.7781 87.5986 15.6094C86.7179 16.3846 85.7389 17.0518 84.6826 17.5645C84.5605 17.624 84.4396 17.6892 84.3086 17.7256C84.3086 17.4009 84.3082 17.0763 84.3086 16.752C84.4129 16.9232 84.4837 17.1129 84.5889 17.2842C84.7404 17.2169 84.8878 17.1405 85.0312 17.0566C84.8086 16.5777 84.5618 16.1104 84.3311 15.6357C84.2962 15.5756 84.3087 15.504 84.3076 15.4385C84.3111 15.2553 84.3033 15.0714 84.3125 14.8887C84.7463 14.6849 85.1351 14.398 85.5117 14.1045C85.5496 14.0589 85.5893 14.1271 85.6113 14.1533C86.0064 14.6961 86.4233 15.2223 86.8408 15.748C86.8586 15.7704 86.8794 15.7913 86.9033 15.8105C87.1024 15.6695 87.2995 15.5154 87.4541 15.3252C87.0111 14.7933 86.5526 14.2729 86.0693 13.7773C86.0486 13.7481 85.9911 13.721 86.0107 13.6807C86.3274 13.446 86.614 13.1704 86.873 12.873C86.9506 12.7946 87.0078 12.6915 87.0996 12.6289C87.6649 13.0763 88.2301 13.5253 88.7822 13.9893C88.9631 13.7658 89.1389 13.5384 89.3105 13.3076C88.7349 12.8812 88.1491 12.4669 87.5332 12.0996C87.7737 11.7412 88.0297 11.3902 88.2266 11.0039C88.8112 11.2475 89.3719 11.5463 89.9268 11.8506C89.9897 11.8831 90.049 11.9291 90.1201 11.9473C90.2754 11.7065 90.3688 11.4311 90.4785 11.168C89.8568 10.8524 89.2122 10.5793 88.5518 10.3555C88.6751 10.0787 88.7815 9.79123 88.8418 9.49316C89.5111 9.60414 90.1619 9.81292 90.8057 10.0244C90.886 9.71868 90.9172 9.40192 90.9346 9.08691C90.2966 8.92645 89.6476 8.81059 88.9941 8.73828C89.02 8.5412 89.0227 8.34218 89.0273 8.14355C89.6533 8.18996 90.2768 8.26958 90.8936 8.38867C90.8673 8.10641 90.8059 7.82466 90.6973 7.5625C90.1192 7.45386 89.5137 7.49858 88.9307 7.47461C88.8839 7.32306 88.8415 7.16978 88.7773 7.02441C89.3171 6.96603 89.8628 6.97363 90.4053 6.99219C90.2831 6.75021 90.1035 6.53219 89.8955 6.36133C89.4189 6.35942 88.9446 6.43122 88.4746 6.50195C88.3939 6.37527 88.2864 6.27059 88.1895 6.1582C88.5737 6.07665 88.9606 6.00238 89.3525 5.96875C89.325 5.9059 89.2568 5.88166 89.2031 5.84961C89.0017 5.74097 88.7991 5.63158 88.585 5.55078C88.4835 5.50362 88.3781 5.56518 88.2773 5.58105C88.0689 5.62475 87.8686 5.70728 87.6621 5.75098C87.5167 5.6864 87.3805 5.60086 87.2285 5.55176C87.4021 5.46439 87.5902 5.41105 87.7734 5.34766C87.3567 5.2534 86.9219 5.26851 86.4971 5.2832C86.2416 5.3345 85.9818 5.27038 85.7275 5.24023ZM10.3184 12.6514C10.3234 13.1544 10.3056 13.6625 10.1885 14.1543C10.0052 14.987 9.54577 15.7718 8.85156 16.2783C8.00908 16.9058 6.94857 17.1446 5.91895 17.2246C4.98669 17.2722 4.03951 17.2489 3.12891 17.0234C2.27109 16.8077 1.42714 16.3946 0.864258 15.6934C0.263393 14.9746 0.0270768 14.0214 0 13.1016V7.61621C0.912147 7.6166 1.82457 7.61448 2.73633 7.61719C2.7371 9.39972 2.73498 11.1827 2.7373 12.9648C2.74624 13.5131 2.89134 14.1033 3.31738 14.4795C3.7895 14.9036 4.45297 15.0053 5.06543 15.0254C5.57503 15.0347 6.09899 14.9811 6.57031 14.7754C6.92171 14.6219 7.2212 14.3471 7.38086 13.9961C7.55597 13.6284 7.59526 13.2126 7.5918 12.8105C7.59025 11.0802 7.59255 9.34947 7.58984 7.61914C8.49928 7.61257 9.40892 7.61853 10.3184 7.61621V12.6514ZM15.3682 7.61035C16.1356 7.62543 16.9041 7.61255 17.6719 7.61719C17.7279 7.60752 17.7611 7.66359 17.7998 7.69336C18.3523 8.2752 18.921 8.84121 19.4727 9.42383C20.087 10.0463 20.6866 10.6835 21.3018 11.3057C21.8984 11.9409 22.5219 12.5503 23.1143 13.1895C23.1336 12.4704 23.1145 11.7507 23.1211 11.0312C23.1199 9.89292 23.1259 8.75454 23.1182 7.61621C23.9734 7.61698 24.829 7.61737 25.6846 7.61621C25.6884 10.7701 25.685 13.9236 25.6865 17.0771C25.0007 17.0748 24.3147 17.0808 23.6289 17.0742C21.7273 15.1359 19.826 13.1966 17.9209 11.2617C17.9151 13.2003 17.9197 15.1395 17.9189 17.0781C17.0684 17.0804 16.2178 17.0706 15.3672 17.083C15.3494 16.2254 15.3644 15.3664 15.3594 14.5088V10.0625C15.3652 9.24512 15.3473 8.42735 15.3682 7.61035ZM31.5303 7.61328C32.4589 7.62256 33.3877 7.61293 34.3164 7.61719C34.3133 10.7704 34.3141 13.9239 34.3164 17.0771C33.3877 17.0799 32.4589 17.0722 31.5303 17.0811C31.5194 14.8577 31.5285 12.6344 31.5254 10.4111C31.5289 9.47852 31.5187 8.54551 31.5303 7.61328ZM48.5898 9.81836C47.4424 9.81875 46.2949 9.81952 45.1475 9.81836C45.1417 12.2392 45.1511 14.6606 45.1426 17.0811C44.229 17.0741 43.3159 17.0808 42.4023 17.0781C42.4012 14.6576 42.4077 12.2366 42.3984 9.81641C41.2598 9.82027 40.1204 9.82143 38.9814 9.81641L38.9639 9.80078C38.9581 9.07292 38.9613 8.34505 38.9629 7.61719C42.1709 7.61603 45.3789 7.62101 48.5869 7.61328C48.595 8.34795 48.5895 9.08369 48.5898 9.81836ZM70.5684 7.61719C71.4834 7.62569 72.4042 7.57722 73.3135 7.70898C74.1795 7.82883 75.0458 8.07139 75.79 8.54297C76.3855 8.91569 76.8817 9.44986 77.1953 10.0801C77.5498 10.7906 77.6912 11.5936 77.6758 12.3838C77.6777 13.1378 77.5395 13.9034 77.2012 14.582C76.9433 15.1024 76.5673 15.5652 76.1045 15.917C75.3439 16.5054 74.4042 16.8123 73.4639 16.96C72.519 17.1153 71.5589 17.071 70.6055 17.0771H67.0752C67.0825 13.9234 67.0783 10.7696 67.0771 7.61621C68.2409 7.61853 69.4046 7.61641 70.5684 7.61719ZM61.9971 7.61523C61.994 8.32554 62.0042 9.03676 61.9922 9.74707C59.9603 9.73895 57.9284 9.74587 55.8965 9.74316C55.8922 10.2702 55.9024 10.7982 55.8916 11.3252C57.616 11.3395 59.3407 11.3256 61.0654 11.3311C61.0674 11.9938 61.0662 12.6576 61.0674 13.3203C59.3445 13.3203 57.6213 13.3232 55.8984 13.3193C55.8919 13.8635 55.9003 14.408 55.8926 14.9521C57.9407 14.961 59.9896 14.9545 62.0381 14.9561C62.0396 15.6632 62.0366 16.37 62.04 17.0771C59.0806 17.0764 56.121 17.0777 53.1611 17.0762C53.1681 13.9224 53.1642 10.769 53.1631 7.61523C56.1077 7.61871 59.0524 7.61639 61.9971 7.61523ZM69.8213 14.8916C70.1471 14.9078 70.4736 14.8946 70.7998 14.8984C71.3292 14.8942 71.8601 14.913 72.3887 14.8701C73.0478 14.8063 73.7493 14.6372 74.2256 14.1455C74.6678 13.7086 74.8115 13.0651 74.832 12.4639C74.8398 12.013 74.7886 11.5508 74.6104 11.1328C74.4526 10.7648 74.1789 10.4483 73.833 10.2461C73.284 9.91556 72.6309 9.82496 72.002 9.7998C71.2762 9.79748 70.55 9.79903 69.8242 9.7998L69.8213 14.8916ZM84.7188 5.50195C85.5163 5.3682 86.3602 5.37917 87.1211 5.67871C87.6945 5.90491 88.2167 6.30563 88.5117 6.85547C88.9018 7.57233 88.9202 8.4354 88.7539 9.21875C88.5045 10.3291 87.9302 11.3437 87.2227 12.2256C86.451 13.1684 85.5206 13.9807 84.4834 14.6201C84.4281 14.6557 84.3683 14.6844 84.3076 14.7061C84.3107 13.9679 84.3065 13.2294 84.3096 12.4912C84.6433 12.8759 84.9381 13.2954 85.2617 13.6895C85.4252 13.6245 85.551 13.4759 85.6855 13.3623C85.2375 12.891 84.794 12.4156 84.3506 11.9404C84.2876 11.8944 84.2845 11.7894 84.3564 11.75C84.593 11.5575 84.7994 11.3322 85.0039 11.1064C85.5998 11.4873 86.171 11.9052 86.7305 12.3379C86.8406 12.2073 86.9537 12.0788 87.0596 11.9443C87.0767 11.9127 87.1423 11.861 87.0928 11.8301C86.5016 11.4558 85.8942 11.1044 85.2666 10.7939C85.453 10.5616 85.6121 10.3078 85.749 10.043C86.3487 10.2208 86.937 10.4351 87.5146 10.6748C87.6183 10.7177 87.717 10.7764 87.8291 10.7969C87.9265 10.6051 88.0261 10.414 88.1162 10.2188C87.4148 9.9651 86.6925 9.76837 85.959 9.63574C86.0305 9.45409 86.1107 9.2731 86.1436 9.0791C86.9026 9.12009 87.6603 9.2158 88.4023 9.38477C88.4576 9.15663 88.5212 8.9263 88.5332 8.69043C87.7738 8.6189 87.0105 8.59884 86.248 8.61816C86.2682 8.4674 86.2748 8.3156 86.2891 8.16406C87.0481 8.1049 87.8105 8.08041 88.5723 8.11328C88.5549 7.91379 88.5407 7.70897 88.4727 7.51953C87.7261 7.52187 86.986 7.65126 86.251 7.77344C86.2282 7.65566 86.1969 7.54009 86.1621 7.42578C86.8629 7.2395 87.5826 7.13532 88.3027 7.05762C88.2224 6.8935 88.1199 6.74195 88.0049 6.60059C87.336 6.72044 86.684 6.92165 86.0371 7.12695C85.9849 7.02451 85.9219 6.92721 85.8477 6.83984C86.4233 6.58512 87.0359 6.42252 87.6475 6.27832C87.4936 6.13641 87.3078 6.03099 87.1172 5.94824C86.5914 6.09093 86.0959 6.33337 85.6084 6.57422C85.5397 6.50984 85.4606 6.45929 85.3838 6.40723C85.3843 6.35938 85.4369 6.34856 85.4697 6.32422C85.8299 6.10281 86.216 5.92764 86.6094 5.77344C86.3462 5.69003 86.0689 5.65824 85.7949 5.64355C85.4927 5.78159 85.2202 5.98308 84.9492 6.1748C84.8445 6.13618 84.7386 6.10404 84.6309 6.08008C84.777 5.91396 84.9726 5.80268 85.1484 5.6709C84.8647 5.66239 84.5877 5.73727 84.3086 5.77246C84.3086 5.74203 84.308 5.68164 84.3076 5.65137C84.2465 5.64943 84.1857 5.64585 84.127 5.6416C84.3133 5.56156 84.5212 5.54681 84.7188 5.50195ZM84.3096 6.17383C84.9611 6.25503 85.6027 6.62603 85.9062 7.22266C86.2062 7.87137 86.1559 8.62876 85.9189 9.28906C85.6611 9.99727 85.2411 10.6427 84.7158 11.1816C84.5797 11.3127 84.4615 11.466 84.3076 11.5762C84.313 11.2684 84.2988 10.9592 84.3154 10.6514C84.4225 10.7128 84.5188 10.7977 84.6367 10.8398C84.7257 10.773 84.7871 10.6755 84.8613 10.5928C84.6869 10.4822 84.4961 10.3995 84.3086 10.3145C84.309 10.0898 84.3092 9.86469 84.3076 9.63965C84.6533 9.67599 84.9834 9.79581 85.3125 9.90137C85.3743 9.78738 85.4401 9.67403 85.4834 9.55078C85.0944 9.48776 84.709 9.38531 84.3135 9.37988C84.3077 9.25151 84.3083 9.1231 84.3125 8.99512C84.7729 8.9789 85.2336 9.00098 85.6924 9.03809C85.7357 8.90971 85.7702 8.77832 85.793 8.64453C85.2965 8.6337 84.8036 8.70372 84.3105 8.74316C84.3125 8.64504 84.3133 8.54637 84.3125 8.44824C84.8104 8.34039 85.3149 8.25931 85.8232 8.21484C85.8221 8.10326 85.816 7.99206 85.8105 7.88086C85.3006 7.95046 84.8018 8.10386 84.3154 8.27051C84.3131 8.17693 84.3119 8.08283 84.3115 7.98926C84.7704 7.80523 85.239 7.63974 85.7227 7.53418C85.7006 7.44641 85.6682 7.36166 85.6318 7.2793C85.1694 7.40032 84.7403 7.62195 84.3076 7.82031C84.3065 7.71604 84.3075 7.61111 84.3125 7.50684C84.6743 7.32941 85.0369 7.15243 85.4072 6.99316C85.3423 6.91905 85.2704 6.85145 85.1924 6.79199C84.897 6.96058 84.6015 7.13095 84.3135 7.31152C84.3115 7.20877 84.3121 7.10568 84.3145 7.00293C84.4741 6.90284 84.6311 6.79748 84.7969 6.70703C84.8313 6.67803 84.8954 6.66804 84.9082 6.61816C84.802 6.55095 84.6822 6.50267 84.5605 6.47559C84.4686 6.51076 84.3998 6.58863 84.3086 6.625C84.3078 6.47459 84.308 6.32424 84.3096 6.17383Z" fill="white"/>
</g>
<g clip-path="url(#clip1_5035_982)">
<path d="M160.594 3.24072H163.63L156.997 10.8219L164.8 21.1381H158.69L153.905 14.8814L148.429 21.1381H145.391L152.486 13.0292L145 3.24072H151.265L155.591 8.95962L160.594 3.24072ZM159.528 19.3208H161.21L150.351 4.96254H148.546L159.528 19.3208Z" fill="white"/>
</g>
<path d="M215.889 20.4814H206V17.1855H215.889V20.4814ZM229.074 20.4814H219.186V17.1855H229.074V20.4814ZM260.368 10.0225H261.663V11.5332H260.368V14.4199L260.405 15.4424C260.603 15.961 261.14 15.767 261.656 15.5938L261.818 17.0645C260.716 17.5306 258.684 17.5856 258.526 15.9922C258.483 15.7469 258.47 15.1282 258.466 14.4199V11.5332H257.596V10.0225H258.466V8.59863L260.368 7.49316V10.0225ZM270.933 9.86035C272.215 9.87732 273.125 10.0255 273.695 10.9219C273.864 11.2299 273.948 11.7962 273.948 12.6191C273.954 13.4098 273.868 15.5807 274.02 16.2246C274.08 16.5236 274.193 16.844 274.359 17.1855H272.484C272.428 17.0607 272.297 16.5981 272.235 16.4033C271.607 17.0135 270.88 17.3471 270.016 17.3477C268.672 17.3744 267.634 16.5454 267.635 15.2295C267.63 14.4432 268.031 13.7551 268.737 13.418C269.086 13.2493 269.588 13.1025 270.245 12.9766C271.131 12.8102 271.745 12.6547 272.087 12.5107V12.3223C272.087 11.958 271.996 11.6981 271.816 11.543C271.556 11.2772 270.381 11.2038 270.009 11.5098C269.82 11.6425 269.667 11.8754 269.55 12.208L267.83 11.8975C268.293 10.3398 269.235 9.87271 270.933 9.86035ZM251.136 10.4941C251.939 9.67209 254.718 9.68031 255.602 10.3389C256.078 10.6581 256.406 11.1308 256.586 11.7559L254.799 12.0859C254.611 11.4451 254.152 11.2243 253.449 11.2227C252.95 11.2227 252.593 11.2923 252.377 11.4316C252.108 11.6064 252.081 11.9702 252.351 12.1602C252.522 12.2861 253.112 12.4642 254.121 12.6934C255.13 12.9226 255.835 13.2035 256.235 13.5361C257.145 14.3103 256.972 15.8798 256.006 16.6387C255.054 17.5574 252.315 17.5689 251.254 16.7539C250.685 16.3583 250.313 15.8206 250.138 15.1416L252.04 14.8516C252.121 15.2204 252.285 15.5003 252.532 15.6914C252.982 16.0866 254.244 16.0551 254.677 15.708C254.945 15.5234 255.021 15.0834 254.792 14.8447C254.698 14.7549 254.486 14.6722 254.158 14.5957C252.629 14.2584 251.66 13.9497 251.251 13.6709C250.148 12.9737 250.126 11.3045 251.136 10.4941ZM240.449 14.042L242.224 7.29688H245.219V17.1855H243.363V9.40137L241.4 17.1855H239.479L237.522 9.40137V17.1855H235.667V7.29688H238.655L240.449 14.042ZM248.973 17.1855H247.078V10.0215H248.973V17.1855ZM265.36 10.0898C265.987 9.69847 266.794 9.84469 267.428 10.2178L266.841 11.8701C265.985 11.3006 265.085 11.4998 264.841 12.5713C264.627 13.1891 264.691 16.1181 264.683 17.1855H262.787V10.0215H264.548V11.041C264.849 10.56 265.12 10.2428 265.36 10.0898ZM277.602 17.1855H275.706V7.29688H277.602V17.1855ZM292.093 17.1855H289.921L289.058 14.9395H285.104L284.288 17.1855H282.17L286.021 7.29688H288.133L292.093 17.1855ZM294.978 17.1855H292.98V7.29688H294.978V17.1855ZM225.778 17.1846H222.481V13.8887H219.186V17.1846H215.889V13.8887H212.593V17.1846H209.296V10.5928H225.778V17.1846ZM272.086 13.7451C271.74 13.8891 270.198 14.1384 269.9 14.3662C269.41 14.6892 269.428 15.3441 269.827 15.7217C270.291 16.1724 271.047 16.057 271.561 15.6748C272.188 15.2255 272.07 14.5525 272.086 13.7451ZM285.719 13.2734H288.416L287.054 9.60352L285.719 13.2734ZM212.593 7.2959H215.889V10.5918H209.296V4H212.593V7.2959ZM225.778 10.5918H219.186V7.2959H222.481V4H225.778V10.5918ZM248.973 9.05078H247.078V7.29688H248.973V9.05078Z" fill="white"/>
<path d="M337.93 21L336 3H339.524L340.531 14.3574L341.538 3H344.895L345.86 14.3574L346.825 3H350.391L348.419 21H344.097L343.195 12.3248L342.335 21H337.93Z" fill="white"/>
<path d="M351.414 3H356.952C357.833 3 358.512 3.20256 358.987 3.60768C359.477 3.99884 359.805 4.55762 359.973 5.28405C360.141 5.9965 360.225 6.91152 360.225 8.0291C360.225 9.0489 360.092 9.84517 359.826 10.4179C359.56 10.9907 359.099 11.3888 358.442 11.6123C358.987 11.7241 359.379 11.9965 359.616 12.4295C359.868 12.8626 359.994 13.4493 359.994 14.1897L359.952 21H356.428V13.9592C356.428 13.4563 356.33 13.135 356.134 12.9954C355.938 12.8556 355.582 12.7858 355.064 12.7858V21H351.414V3ZM355.945 9.66357C356.449 9.66357 356.701 9.11872 356.701 8.0291C356.701 7.55413 356.68 7.1979 356.638 6.96042C356.596 6.72293 356.519 6.56228 356.407 6.47846C356.295 6.38067 356.134 6.33177 355.924 6.33177H355.085V9.66357H355.945Z" fill="white"/>
<path d="M361.243 21V3H364.725V21H361.243Z" fill="white"/>
<path d="M367.716 21V6.4575H365.577V3H373.464V6.4575H371.325V21H367.716Z" fill="white"/>
<path d="M374.481 21V3H381.698V6.47846H378.153V9.97786H381.551V13.3725H378.153V17.5006H381.929V21H374.481Z" fill="white"/>
<path d="M382.812 3H388.35C389.231 3 389.909 3.20256 390.384 3.60768C390.874 3.99884 391.203 4.55762 391.37 5.28405C391.538 5.9965 391.622 6.91152 391.622 8.0291C391.622 9.0489 391.489 9.84517 391.224 10.4179C390.958 10.9907 390.497 11.3888 389.839 11.6123C390.384 11.7241 390.776 11.9965 391.014 12.4295C391.265 12.8626 391.392 13.4493 391.392 14.1897L391.349 21H387.825V13.9592C387.825 13.4563 387.728 13.135 387.531 12.9954C387.336 12.8556 386.979 12.7858 386.462 12.7858V21H382.812V3ZM387.343 9.66357C387.846 9.66357 388.098 9.11872 388.098 8.0291C388.098 7.55413 388.077 7.1979 388.035 6.96042C387.993 6.72293 387.916 6.56228 387.804 6.47846C387.693 6.38067 387.531 6.33177 387.322 6.33177H386.483V9.66357H387.343Z" fill="white"/>
<defs>
<clipPath id="clip0_5035_982">
<rect width="104.4" height="18" fill="white" transform="translate(0 2.79395)"/>
</clipPath>
<clipPath id="clip1_5035_982">
<rect width="19.8" height="18" fill="white" transform="translate(145 3.24072)"/>
</clipPath>
</defs>
</svg>